<svg width="100" height="23" viewBox="0 0 100 23" fill="none" xmlns="http://www.w3.org/2000/svg">
<g clip-path="url(#clip0_3230_13797)">
<path fill-rule="evenodd" clip-rule="evenodd" d="M4.9197 7.35158C4.53993 7.24871 4.9197 7.35158 4.58767 7.20932C3.70505 6.83601 2.7536 6.65694 1.79688 6.68406C1.73611 7.00359 1.73611 6.92699 1.88151 7.16336C2.39583 7.98627 2.72569 8.25766 3.37674 8.81137C3.50164 8.94129 3.63822 9.05925 3.78472 9.16374C4.14779 9.41067 4.57511 9.54392 5.01302 9.54674C4.86328 9.7656 4.90017 9.64523 4.82422 9.92756H4.63542C4.35764 9.15061 1.52344 8.88798 0.757379 9.27098C0.915799 9.8619 1.73611 10.4091 2.13542 10.7242C2.38899 10.9585 2.67846 11.1499 2.99262 11.2911C3.33527 11.4503 3.69606 11.5665 4.06684 11.6369V11.9236C3.73883 11.8158 3.40067 11.7425 3.05773 11.7047C1.73611 11.5843 0.839844 12.114 0 12.3109C0.0325521 12.694 -0.0585937 12.4751 0.167101 12.7158C0.651042 13.2148 2.48264 13.8386 3.50043 13.8386C3.18359 14.4448 1.41493 15.0708 1.13498 16.1279C1.63194 16.3686 2.29601 16.3314 2.87109 16.2526L4.30339 16.1694C3.33984 16.7844 0.525174 19.3867 3.65234 18.5769L5.38845 18.0407C5.10963 18.4484 4.88219 18.8895 4.71137 19.3539C4.63325 19.5727 4.19271 20.7852 4.47266 20.9318C4.7092 21.0588 5.59896 20.4941 5.78993 20.3453L6.99653 19.4699C6.83811 20.1549 6.38672 21.3017 6.52344 21.9495C7.46311 21.9495 9.03646 20.2775 9.26649 19.2795C9.54861 19.4852 9.3533 19.2795 9.40321 19.4983C9.47266 19.82 9.40321 21.4046 9.92839 22.4179C10.4688 22.1312 10.612 21.827 11.0265 21.1398C11.3997 20.5226 11.5365 20.1221 11.5365 19.17L11.5951 19.3035C11.8772 20.0039 12.7713 21.2032 13.1814 21.5206C14.5009 22.5448 13.9323 20.6736 13.8086 19.17C14.2426 19.3276 15.2778 20.6014 16.4562 20.6014C16.4323 19.4852 15.8051 18.4959 15.4167 17.7409C15.6055 17.7846 19.4184 19.0934 18.4549 17.7409L17.8168 17.0361C17.3416 16.5174 16.6298 15.7055 15.8876 15.6442V15.4538C16.6862 15.642 18.2986 16.3577 19.5768 15.7383C19.375 14.8629 17.6606 14.0356 17.2114 13.6416C18.24 13.5541 19.6723 12.5473 19.8589 12.497V12.2168C19.4531 12.1205 19.069 11.8929 18.5894 11.7791C18.1045 11.6657 17.612 11.5882 17.1159 11.5471C17.5065 11.2057 18.9996 10.3915 19.197 9.63867C18.8411 9.5555 18.7847 9.46796 18.3485 9.44607C17.982 9.42455 17.6143 9.43847 17.2504 9.48765C16.4822 9.59708 16.0786 9.64961 15.5143 9.92537C15.6879 9.44169 15.9484 9.82689 17.053 8.70851C17.4306 8.32332 18.138 7.71051 18.2574 7.15898C17.4566 6.7716 15.6641 7.30999 15.0412 7.73021C15.1953 7.07363 16.0829 5.80861 16.0829 4.77341C14.9501 4.77341 14.3099 5.61164 13.4332 6.20475C13.4332 4.90253 13.6806 5.37965 13.5286 3.53466C12.806 3.54998 12.4978 4.19124 12.1289 4.60488C11.8202 4.91697 11.578 5.28934 11.4171 5.69919L11.1632 6.10845C11.1632 5.16079 10.8767 4.74277 10.5968 4.1037C10.3798 3.62877 10.0195 2.82555 9.45964 2.67673C9.23602 3.68351 9.10813 4.7095 9.07769 5.74077C9.07769 6.28135 9.16667 6.47176 9.17535 6.88322C8.38976 6.81318 9.64627 6.96857 8.21181 4.80405L7.12674 3.51496C6.89453 3.28297 6.94444 3.2589 6.52778 3.25014C6.52778 3.72069 6.38672 4.0446 6.43663 4.67711C6.47135 5.08638 6.61241 5.59632 6.62109 6.01653C6.36936 5.84582 4.41189 4.02272 3.97352 4.48451C3.68924 4.79529 4.8546 7.11083 4.9197 7.35158Z" fill="white"/>
<path fill-rule="evenodd" clip-rule="evenodd" d="M8.48745 7.32961C8.27044 7.11075 8.48745 7.32961 8.31167 7.11075C7.83854 6.52499 7.24658 6.04814 6.57556 5.71224C6.41714 5.90265 6.44318 5.8545 6.45837 6.07336C6.49709 6.65966 6.6443 7.23347 6.8924 7.76514C6.93019 7.90114 6.98106 8.03308 7.04431 8.15909C7.20517 8.46432 7.45111 8.71539 7.75178 8.88133C7.56514 8.98201 7.63676 8.90759 7.48268 9.07393L7.35247 9.00389C7.44362 8.36482 5.58598 7.13045 4.92191 7.09981C4.81124 7.57474 5.17365 8.25539 5.33424 8.63183C5.42358 8.88752 5.55329 9.12697 5.71836 9.34094C5.89577 9.57902 6.10209 9.79372 6.33251 9.98001L6.22834 10.177C6.04154 9.98014 5.83499 9.80338 5.61202 9.64953C4.74396 9.07393 3.9345 9.10457 3.28346 8.92729C3.1641 9.20524 3.18146 9.02359 3.25091 9.26871C3.40065 9.79179 4.4358 10.9036 5.13893 11.2822C4.7049 11.5799 3.25091 11.3566 2.67148 11.9804C2.92539 12.3328 3.39631 12.5538 3.81948 12.7114L4.83728 13.1863C3.94969 13.252 1.05473 14.0005 3.51349 14.6023L4.90672 14.8825C4.5651 15.0613 4.24659 15.2818 3.95837 15.5391C3.82165 15.6638 3.0773 16.3335 3.21619 16.5392C3.35507 16.745 4.14718 16.664 4.33815 16.6246L5.49266 16.4648C5.13242 16.8785 4.40759 17.5 4.26002 17.9969C4.91106 18.347 6.60377 17.778 7.12895 17.1761C7.2483 17.4213 7.18971 17.2046 7.12895 17.395C7.05733 17.6423 6.42799 18.7081 6.42365 19.6033C6.90108 19.6033 7.10942 19.4501 7.64761 19.1305C8.12961 18.8696 8.51034 18.4525 8.72834 17.9465V18.0581C8.69546 18.7758 8.79178 19.4936 9.01263 20.1767C9.54865 21.3761 9.83945 19.8725 10.3039 18.7891C10.5426 19.0605 10.7943 20.3211 11.6059 20.7589C11.9987 19.9819 11.9315 19.0671 11.9358 18.3996C12.0487 18.5002 14.2014 20.8223 14.0343 19.5289L13.8412 18.822C13.7045 18.2879 13.5092 17.4628 13.0209 17.1433L13.0903 17.012C13.5721 17.4497 14.4228 18.544 15.5296 18.5812C15.7097 17.9071 14.8329 16.6946 14.6615 16.2547C15.4015 16.5786 16.76 16.4167 16.9076 16.4517L17.0118 16.2525C16.7665 16.0337 16.5777 15.736 16.2956 15.48C16.0025 15.2221 15.6914 14.9858 15.3646 14.773C15.7618 14.6636 17.0899 14.6636 17.5022 14.2259C17.3503 14.0542 17.1766 13.9033 16.9857 13.7772C16.7403 13.6268 16.4817 13.4993 16.2131 13.3964C15.6424 13.1885 15.3451 13.0725 14.8525 13.0528C15.1476 12.7836 15.1932 13.1491 16.3564 12.7858C16.76 12.6589 17.4653 12.4969 17.7561 12.1642C17.3438 11.5996 15.9115 11.3041 15.3277 11.3632C15.6793 10.9605 16.7492 10.4243 17.1268 9.71081C16.3455 9.2906 15.6077 9.62983 14.7765 9.71081C15.2539 8.8113 15.2496 9.2337 15.8204 7.90303C15.3147 7.64696 14.872 7.9665 14.464 8.12189C14.1366 8.22208 13.833 8.38893 13.5721 8.61213L13.2379 8.79816C13.5851 8.14158 13.5417 7.74982 13.5808 7.20486C13.6112 6.79997 13.6502 6.11056 13.3204 5.79759C12.7985 6.40783 12.3363 7.06748 11.9401 7.76733C11.7427 8.1394 11.7231 8.30354 11.5886 8.59244C11.0721 8.25101 11.8816 8.82443 11.6841 6.79778L11.4063 5.50651C11.3412 5.25263 11.3781 5.25263 11.096 5.09943C10.9158 5.42115 10.7097 5.59405 10.5122 6.04928C10.3863 6.34693 10.2952 6.74963 10.1498 7.04291C10.0391 6.82405 9.35551 4.85431 8.88242 5.00532C8.57209 5.11037 8.53086 7.14139 8.48745 7.32961Z" fill="#25A1D3"/>
<path fill-rule="evenodd" clip-rule="evenodd" d="M9.86996 8.27078C10.7807 8.27381 11.6701 8.549 12.4259 9.06158C13.1816 9.57416 13.7698 10.3011 14.116 11.1507C14.4623 12.0002 14.5511 12.9342 14.3713 13.8346C14.1914 14.735 13.751 15.5615 13.1056 16.2096C12.4603 16.8577 11.6389 17.2984 10.7454 17.4759C9.85177 17.6535 8.92606 17.5599 8.08517 17.2071C7.24427 16.8544 6.52592 16.2581 6.02086 15.4938C5.51581 14.7295 5.24671 13.8313 5.24756 12.9128C5.24813 12.3017 5.36822 11.6967 5.60096 11.1325C5.8337 10.5683 6.17451 10.0559 6.60388 9.6247C7.03326 9.19351 7.54275 8.85197 8.10319 8.61964C8.66364 8.38731 9.26402 8.26876 9.86996 8.27078Z" fill="white"/>
<path fill-rule="evenodd" clip-rule="evenodd" d="M31.0331 12.2233V14.239H24.1538V3.38352H30.7771V5.39922H26.5887V7.66004H30.5622V9.62978H26.5887V12.2233H31.0331ZM36.9424 14.239H34.5054L31.6842 6.34688H34.2884L35.3626 10.0172C35.5422 10.6462 35.6871 11.2848 35.7966 11.93H35.8682C35.9767 11.2844 36.12 10.6891 36.3022 10.0172L37.2962 6.34688H39.8374L36.9381 14.2258L36.9424 14.239ZM45.0696 8.45013C44.1755 8.45013 43.5657 8.94037 43.4225 9.68887C43.38 9.86681 43.356 10.0487 43.3509 10.2316V14.239H40.9116V8.94037C40.9116 7.80449 40.9116 7.02753 40.8769 6.35563H42.9537L43.0253 7.80449H43.097C43.2386 7.34607 43.5177 6.94326 43.8959 6.65162C44.2741 6.35997 44.7327 6.19385 45.2085 6.17617C45.376 6.17125 45.5436 6.1793 45.7098 6.20024V8.53548C45.4973 8.48015 45.2782 8.45438 45.0588 8.45888L45.0696 8.45013ZM50.5123 14.4184C48.2206 14.4184 46.4672 12.8864 46.4672 10.3608C46.4672 7.83513 48.1143 6.17617 50.6555 6.17617C53.021 6.17617 54.6312 7.82856 54.6312 10.2076C54.6312 13.1009 52.5891 14.4184 50.508 14.4184H50.5123ZM50.5839 7.93362C49.4034 7.93362 48.9737 9.12203 48.9737 10.2842C48.9737 11.6542 49.5466 12.661 50.5839 12.661C51.5149 12.661 52.1247 11.7046 52.1247 10.2842C52.1247 9.12203 51.6581 7.93362 50.5839 7.93362ZM60.7185 14.4184C59.7875 14.4184 58.9281 14.0836 58.3552 13.1272H58.3205L58.212 14.239H56.172C56.2068 13.7203 56.2437 12.766 56.2437 11.8862V2.79041H58.6373V7.28579H58.6742C59.1386 6.61389 59.9633 6.17617 61.0375 6.17617C62.9342 6.17617 64.2927 7.75196 64.2601 10.155C64.2601 13.0002 62.5045 14.4184 60.7141 14.4184H60.7185ZM60.1456 8.0715C59.8042 8.07493 59.4746 8.19799 59.2133 8.4196C58.952 8.6412 58.7752 8.94756 58.7133 9.28617C58.6724 9.42873 58.6484 9.57565 58.6417 9.72389V10.8882C58.6466 11.0366 58.6707 11.1838 58.7133 11.3259C58.7816 11.6572 58.9616 11.9543 59.2228 12.1666C59.484 12.3789 59.8101 12.4933 60.1456 12.4903C61.1851 12.4903 61.7927 11.6893 61.7927 10.2667C61.7927 9.05199 61.2567 8.07806 60.1456 8.07806V8.0715ZM70.2042 14.239L70.0609 13.4379H70.0262C69.7466 13.7611 69.3987 14.0169 69.0081 14.1866C68.6175 14.3563 68.1942 14.4355 67.7693 14.4184C66.1937 14.4184 65.2628 13.2563 65.2628 11.9891C65.2628 9.94932 67.0878 8.96663 69.8461 8.9929V8.86377C69.8461 8.45012 69.5943 7.85483 68.4138 7.85483C67.6594 7.86797 66.9205 8.07271 66.2654 8.45013L65.7988 6.87214C66.7409 6.396 67.7834 6.15719 68.837 6.17617C71.4411 6.17617 72.2745 7.7257 72.2745 9.58601V12.3261C72.2655 12.9655 72.3018 13.6048 72.383 14.239H70.2042ZM69.9177 10.5184C68.6286 10.4943 67.6608 10.8029 67.6608 11.7593C67.6526 11.8845 67.6712 12.01 67.7154 12.1273C67.7596 12.2447 67.8282 12.351 67.9167 12.4393C68.0052 12.5275 68.1115 12.5955 68.2283 12.6386C68.3452 12.6818 68.4699 12.6991 68.5939 12.6894C68.8733 12.6853 69.1451 12.5967 69.3741 12.4352C69.6031 12.2737 69.7789 12.0466 69.8786 11.7834C69.9085 11.6477 69.9202 11.5085 69.9134 11.3697V10.5162L69.9177 10.5184ZM74.1799 14.239V2.79041H76.6061V14.239H74.1799ZM78.62 14.239V2.79041H81.0549V14.239H78.62ZM86.6495 14.4184C84.3947 14.4184 82.6391 12.8864 82.6391 10.3608C82.6391 7.83513 84.2862 6.17617 86.7927 6.17617C89.1929 6.17617 90.7684 7.82856 90.7684 10.2076C90.7684 13.1009 88.7632 14.4184 86.6451 14.4184H86.6495ZM86.7211 7.93362C85.5753 7.93362 85.1456 9.12203 85.1456 10.2842C85.1456 11.6542 85.6816 12.661 86.7211 12.661C87.689 12.661 88.2619 11.7046 88.2619 10.2842C88.2619 9.12203 87.8279 7.93362 86.7211 7.93362ZM97.3548 14.239V9.86177C97.3548 8.85502 97.0314 8.15685 96.1373 8.15685C95.8645 8.1535 95.5981 8.23993 95.3784 8.40305C95.1587 8.56616 94.9977 8.79706 94.9199 9.06074C94.8426 9.2577 94.8057 9.46839 94.8114 9.68012V14.239H92.37V8.86377C92.37 7.88109 92.3352 7.0538 92.2983 6.35563H94.4121L94.5184 7.44993H94.59C94.8561 7.05635 95.2144 6.73501 95.633 6.51436C96.0517 6.29371 96.5178 6.18056 96.9902 6.18492C98.6004 6.18492 99.7832 7.24421 99.7832 9.5685V14.239H97.3548Z" fill="white"/>
<path fill-rule="evenodd" clip-rule="evenodd" d="M24.2319 15.9221H26.6733V16.4737H24.8569V17.2572H25.7966C25.9533 17.2487 26.1099 17.2731 26.2568 17.3288C26.4036 17.3846 26.5373 17.4705 26.6495 17.5811C26.8503 17.7969 26.962 18.0818 26.962 18.3778C26.962 18.6737 26.8503 18.9586 26.6495 19.1744C26.5369 19.2843 26.403 19.3696 26.2563 19.4249C26.1095 19.4803 25.9531 19.5045 25.7966 19.4961H24.2319V15.9221ZM25.712 17.8087H24.8569V18.9446H25.712C25.8708 18.9493 26.0257 18.8939 26.146 18.7892C26.2004 18.7354 26.2436 18.6712 26.2731 18.6004C26.3026 18.5296 26.3178 18.4535 26.3178 18.3767C26.3178 18.2998 26.3026 18.2238 26.2731 18.1529C26.2436 18.0821 26.2004 18.0179 26.146 17.9641C26.0257 17.8594 25.8708 17.804 25.712 17.8087ZM28.6547 19.5596C28.4762 19.5656 28.2984 19.5354 28.1318 19.4707C27.9651 19.406 27.8131 19.3083 27.6846 19.1832C27.5574 19.0547 27.458 18.9011 27.3926 18.732C27.3272 18.5628 27.2974 18.3819 27.3048 18.2005C27.297 17.843 27.4296 17.4968 27.6738 17.2375C27.7938 17.109 27.9393 17.0075 28.1008 16.9396C28.2624 16.8717 28.4363 16.839 28.6113 16.8435C28.7844 16.8371 28.9569 16.8693 29.1163 16.9378C29.2757 17.0062 29.4182 17.1093 29.5336 17.2397C29.7732 17.5206 29.898 17.8828 29.883 18.253V18.3843H27.8908C27.9087 18.58 27.9985 18.7619 28.1425 18.8943C28.2994 19.0342 28.504 19.1072 28.7133 19.0978C28.8497 19.0974 28.985 19.0722 29.1126 19.0234C29.2377 18.9756 29.351 18.9009 29.4446 18.8045L29.7029 19.1744C29.5607 19.3059 29.3941 19.4077 29.2127 19.4738C29.0313 19.5399 28.8387 19.5691 28.646 19.5596H28.6547ZM29.3383 17.9904C29.3323 17.8128 29.2629 17.6434 29.143 17.5133C29.0757 17.4396 28.9933 17.3818 28.9013 17.344C28.8094 17.3061 28.7104 17.2892 28.6113 17.2944C28.5155 17.2889 28.4198 17.3045 28.3306 17.34C28.2414 17.3755 28.161 17.4302 28.0948 17.5001C27.969 17.6293 27.8922 17.799 27.8778 17.9794L29.3383 17.9904ZM31.3695 19.5596C31.1542 19.5726 30.9385 19.5426 30.7348 19.4712C30.5311 19.3998 30.3434 19.2886 30.1825 19.1438L30.445 18.7826C30.7022 19.0028 31.0326 19.1162 31.3695 19.1C31.5283 19.1084 31.6866 19.076 31.8296 19.0059C31.879 18.9844 31.9213 18.9491 31.9513 18.9041C31.9813 18.859 31.9978 18.8063 31.9989 18.752C31.9989 18.5331 31.7818 18.415 31.3196 18.415H30.7706V17.9641H31.3196C31.4781 17.9719 31.6363 17.9426 31.7818 17.8788C31.8318 17.8586 31.8746 17.8239 31.9047 17.7791C31.9349 17.7342 31.9511 17.6813 31.9511 17.6271C31.9473 17.5754 31.9287 17.5259 31.8975 17.4847C31.8662 17.4435 31.8238 17.4124 31.7753 17.3951C31.6391 17.3329 31.4908 17.3022 31.3413 17.3053C31.1898 17.2978 31.0383 17.3215 30.8962 17.375C30.754 17.4284 30.6242 17.5104 30.5145 17.6161L30.2367 17.2725C30.3785 17.1299 30.5483 17.0187 30.7351 16.946C30.9219 16.8733 31.1217 16.8406 31.3218 16.8501C31.6328 16.8303 31.9435 16.8937 32.2224 17.034C32.3196 17.0804 32.4018 17.1534 32.4598 17.2448C32.5177 17.3361 32.549 17.442 32.5501 17.5505C32.5507 17.6313 32.5323 17.7111 32.4965 17.7833C32.4606 17.8556 32.4084 17.9183 32.3439 17.9663C32.2071 18.0788 32.0417 18.1501 31.8665 18.172C32.0481 18.1873 32.2226 18.2508 32.3721 18.3559C32.4447 18.4027 32.5042 18.4675 32.5449 18.5442C32.5855 18.6208 32.606 18.7067 32.6043 18.7936C32.6026 18.907 32.5712 19.018 32.5133 19.1152C32.4554 19.2125 32.373 19.2925 32.2745 19.3473C32.0055 19.5045 31.6974 19.5804 31.3869 19.5662L31.3695 19.5596ZM34.3166 19.5596C34.1379 19.567 33.9597 19.536 33.7939 19.4684C33.6282 19.4008 33.4786 19.2984 33.3552 19.1678C33.1216 18.9011 32.9927 18.5575 32.9927 18.2016C32.9927 17.8457 33.1216 17.5021 33.3552 17.2353C33.6144 16.9837 33.9601 16.8432 34.3198 16.8432C34.6795 16.8432 35.0253 16.9837 35.2845 17.2353C35.5182 17.5024 35.6472 17.8464 35.6472 18.2027C35.6472 18.5589 35.5182 18.9029 35.2845 19.17C35.1599 19.3007 35.0091 19.403 34.8422 19.4702C34.6753 19.5374 34.4961 19.5678 34.3166 19.5596ZM34.3166 19.0628C34.42 19.0686 34.5234 19.0499 34.6184 19.0081C34.7134 18.9663 34.7973 18.9025 34.8634 18.822C34.9944 18.6459 35.0653 18.4316 35.0653 18.2114C35.0653 17.9912 34.9944 17.777 34.8634 17.6008C34.7956 17.5231 34.7122 17.4608 34.6186 17.4182C34.5251 17.3755 34.4236 17.3534 34.3209 17.3534C34.2182 17.3534 34.1168 17.3755 34.0232 17.4182C33.9297 17.4608 33.8462 17.5231 33.7784 17.6008C33.6487 17.7775 33.5787 17.9916 33.5787 18.2114C33.5787 18.4313 33.6487 18.6453 33.7784 18.822C33.8431 18.9035 33.926 18.9686 34.0202 19.0119C34.1144 19.0552 34.2174 19.0757 34.3209 19.0715L34.3166 19.0628ZM38.5201 19.5005H37.9602V17.4016H36.7732V19.4961H36.2133V16.9092H38.5201V19.4961V19.5005ZM41.3847 19.5005H40.8226V19.2182C40.7173 19.3335 40.5879 19.4239 40.4439 19.483C40.2998 19.542 40.1446 19.5682 39.9893 19.5596C39.7617 19.5649 39.5397 19.4872 39.3643 19.3407C39.274 19.2643 39.2025 19.1679 39.1554 19.0589C39.1083 18.9499 39.087 18.8313 39.093 18.7126C39.0855 18.5939 39.106 18.4751 39.1527 18.3659C39.1995 18.2568 39.2713 18.1603 39.3621 18.0845C39.5399 17.9407 39.7615 17.8634 39.9893 17.8656C40.144 17.8549 40.2992 17.8792 40.4434 17.9367C40.5875 17.9943 40.7171 18.0837 40.8226 18.1983V17.8087C40.8258 17.7406 40.8124 17.6727 40.7836 17.6109C40.7549 17.5491 40.7117 17.4953 40.6577 17.4542C40.5309 17.3647 40.3783 17.3201 40.2237 17.3272C40.0811 17.3268 39.94 17.3555 39.8087 17.4115C39.6774 17.4676 39.5587 17.5498 39.4598 17.6533L39.2298 17.2616C39.5223 16.9828 39.9125 16.8324 40.3148 16.8435C40.5899 16.8289 40.8621 16.9058 41.0896 17.0624C41.1932 17.1479 41.2745 17.2575 41.3267 17.3818C41.3789 17.5061 41.4003 17.6414 41.3891 17.7759V19.4896L41.3847 19.5005ZM40.2085 19.1788C40.3248 19.1888 40.4417 19.1697 40.5488 19.1231C40.656 19.0765 40.7501 19.0039 40.8226 18.9118V18.5156C40.7503 18.4232 40.6563 18.3504 40.5491 18.3038C40.4418 18.2572 40.3248 18.2382 40.2085 18.2486C40.0661 18.2426 39.9262 18.2875 39.8135 18.3756C39.7636 18.4162 39.7236 18.468 39.6969 18.5269C39.6701 18.5858 39.6573 18.6501 39.6595 18.7148C39.6573 18.7789 39.6702 18.8426 39.6969 18.9007C39.7237 18.9589 39.7636 19.0099 39.8135 19.0497C39.9269 19.1361 40.0665 19.1802 40.2085 19.1744V19.1788ZM43.2858 19.564C43.1066 19.571 42.9279 19.5401 42.7612 19.4734C42.5945 19.4067 42.4435 19.3056 42.3179 19.1766C42.0763 18.9103 41.9424 18.5625 41.9424 18.2016C41.9424 17.8407 42.0763 17.4928 42.3179 17.2266C42.4447 17.0999 42.5962 17.0012 42.7628 16.9368C42.9294 16.8724 43.1075 16.8436 43.2858 16.8523C43.4742 16.841 43.6625 16.8764 43.8342 16.9554C44.0059 17.0343 44.1559 17.1545 44.271 17.3053L43.9021 17.6468C43.8373 17.5493 43.7488 17.4701 43.6451 17.4168C43.5414 17.3636 43.4259 17.338 43.3096 17.3425C43.2051 17.3395 43.1012 17.3593 43.0049 17.4004C42.9087 17.4416 42.8224 17.5032 42.7519 17.5811C42.6042 17.7523 42.5266 17.9737 42.5349 18.2005C42.5275 18.4278 42.605 18.6496 42.7519 18.822C42.8231 18.9015 42.9108 18.9642 43.0086 19.0058C43.1065 19.0473 43.2122 19.0668 43.3183 19.0628C43.4345 19.0651 43.5494 19.0383 43.6528 18.9848C43.7562 18.9313 43.8448 18.8528 43.9108 18.7564L44.2797 19.1C44.1649 19.2522 44.0149 19.3737 43.8427 19.4539C43.6706 19.534 43.4816 19.5703 43.2923 19.5596L43.2858 19.564ZM45.3257 19.5005H44.7658V16.9092H45.3257V17.9269H46.5106V16.9092H47.0726V19.4961H46.5106V18.4193H45.3257V19.4961V19.5005ZM47.7996 16.9136H48.3595V17.8503H49.2732C49.39 17.8415 49.5074 17.8576 49.6177 17.8976C49.728 17.9376 49.8288 18.0005 49.9134 18.0823C50.0602 18.2418 50.1383 18.4535 50.1304 18.671C50.1332 18.7797 50.1143 18.8878 50.0747 18.989C50.0352 19.0901 49.9759 19.1822 49.9003 19.2598C49.8181 19.3415 49.7198 19.4049 49.6118 19.446C49.5038 19.4871 49.3884 19.5049 49.2732 19.4983H47.7996V16.9092V16.9136ZM49.2037 18.3427H48.3595V18.9993H49.2037C49.2507 19.0023 49.2978 18.9957 49.3421 18.9799C49.3865 18.9641 49.4273 18.9395 49.462 18.9074C49.5221 18.8419 49.5554 18.7559 49.5554 18.6667C49.5554 18.5774 49.5221 18.4914 49.462 18.4259C49.4273 18.3938 49.3865 18.3692 49.3421 18.3534C49.2978 18.3376 49.2507 18.331 49.2037 18.334V18.3427ZM51.0787 19.5005H50.5167V16.9092H51.0787V19.4961V19.5005ZM52.995 19.564C52.8168 19.5702 52.6392 19.54 52.4729 19.4754C52.3066 19.4107 52.155 19.3128 52.0271 19.1875C51.8997 19.0584 51.8004 18.904 51.7353 18.7341C51.6703 18.5641 51.6411 18.3824 51.6495 18.2005C51.6455 18.0232 51.6762 17.847 51.7399 17.6817C51.8036 17.5165 51.899 17.3655 52.0206 17.2375C52.1403 17.1111 52.2851 17.0115 52.4455 16.9451C52.6058 16.8788 52.7783 16.8471 52.9516 16.8523C53.1244 16.8461 53.2964 16.8783 53.4555 16.9468C53.6145 17.0153 53.7566 17.1183 53.8717 17.2484C54.1113 17.5294 54.2362 17.8915 54.2211 18.2618V18.3843H52.2289C52.2468 18.58 52.3366 18.7619 52.4806 18.8943C52.6375 19.0342 52.8422 19.1072 53.0514 19.0978C53.1878 19.0974 53.3231 19.0722 53.4507 19.0234C53.5764 18.9756 53.6905 18.901 53.7849 18.8045L54.0366 19.1853C53.75 19.4448 53.3731 19.5793 52.9884 19.5596L52.995 19.564ZM53.6786 17.9948C53.6724 17.8176 53.6039 17.6485 53.4854 17.5176C53.4179 17.4443 53.3354 17.3868 53.2435 17.349C53.1517 17.3112 53.0528 17.294 52.9537 17.2988C52.8577 17.2931 52.7615 17.3086 52.672 17.3441C52.5824 17.3796 52.5016 17.4344 52.4351 17.5045C52.3109 17.6348 52.2344 17.8038 52.218 17.9838L53.6786 17.9948ZM58.1078 16.9136V17.406H56.7146V19.5005H56.1525V16.9092L58.1078 16.9136ZM60.712 19.5005H60.1521V19.2182C60.0467 19.3335 59.9174 19.4239 59.7733 19.483C59.6292 19.542 59.474 19.5682 59.3187 19.5596C59.091 19.5655 58.8689 19.4877 58.6937 19.3407C58.603 19.2646 58.5311 19.1682 58.4836 19.0592C58.4362 18.9502 58.4145 18.8315 58.4203 18.7126C58.4133 18.594 58.434 18.4753 58.4807 18.3663C58.5275 18.2572 58.5989 18.1606 58.6894 18.0845C58.868 17.9407 59.0903 17.8635 59.3187 17.8656C59.4735 17.8549 59.6286 17.8792 59.7728 17.9367C59.917 17.9943 60.0466 18.0837 60.1521 18.1983V17.8087C60.1548 17.7404 60.141 17.6724 60.1118 17.6107C60.0827 17.5489 60.0392 17.4952 59.985 17.4542C59.8582 17.3645 59.7056 17.3199 59.5509 17.3272C59.4084 17.3266 59.2671 17.3551 59.1358 17.4112C59.0045 17.4672 58.8858 17.5496 58.7871 17.6533L58.557 17.2616C58.8495 16.9828 59.2398 16.8324 59.6421 16.8435C59.9171 16.8289 60.1894 16.9058 60.4168 17.0624C60.5204 17.1479 60.6018 17.2575 60.654 17.3818C60.7062 17.5061 60.7276 17.6414 60.7163 17.7759V19.4896L60.712 19.5005ZM59.5379 19.1788C59.6542 19.1884 59.7709 19.1691 59.878 19.1225C59.9851 19.076 60.0792 19.0036 60.1521 18.9118V18.5156C60.0796 18.4234 59.9856 18.3507 59.8784 18.3041C59.7712 18.2575 59.6542 18.2384 59.5379 18.2486C59.3949 18.2426 59.2543 18.2875 59.1408 18.3756C59.0912 18.4165 59.0515 18.4684 59.0248 18.5272C58.9981 18.586 58.9851 18.6502 58.9867 18.7148C58.9851 18.7788 58.9982 18.8423 59.0249 18.9004C59.0516 18.9585 59.0913 19.0096 59.1408 19.0497C59.255 19.1361 59.3953 19.1801 59.5379 19.1744V19.1788ZM62.3591 19.564C62.1442 19.577 61.9288 19.547 61.7254 19.4757C61.522 19.4043 61.3347 19.293 61.1742 19.1481L61.4346 18.787C61.6922 19.0064 62.0223 19.1197 62.3591 19.1044C62.5186 19.1125 62.6775 19.0801 62.8214 19.0103C62.8708 18.9888 62.913 18.9535 62.943 18.9084C62.9731 18.8634 62.9896 18.8106 62.9906 18.7564C62.9906 18.5375 62.7628 18.4193 62.3114 18.4193H61.7601V17.9641H62.3114C62.4699 17.9714 62.6279 17.9422 62.7736 17.8788C62.8234 17.8613 62.8666 17.8286 62.8971 17.7853C62.9276 17.7419 62.9441 17.6901 62.9441 17.6369C62.9441 17.5837 62.9276 17.5319 62.8971 17.4886C62.8666 17.4452 62.8234 17.4126 62.7736 17.3951C62.6376 17.3323 62.4891 17.3016 62.3396 17.3053C62.1878 17.2981 62.036 17.3218 61.8936 17.3752C61.7511 17.4287 61.6208 17.5106 61.5106 17.6161L61.2328 17.2725C61.3748 17.1302 61.5446 17.0191 61.7313 16.9464C61.9181 16.8737 62.1179 16.8409 62.3179 16.8501C62.6282 16.8306 62.9381 16.894 63.2163 17.034C63.3137 17.0803 63.3963 17.1532 63.4546 17.2445C63.5129 17.3359 63.5447 17.4419 63.5462 17.5505C63.545 17.6321 63.5247 17.7123 63.487 17.7846C63.4493 17.8568 63.3952 17.9191 63.3292 17.9663C63.1922 18.0784 63.0268 18.1497 62.8517 18.172C63.0327 18.1874 63.2064 18.2508 63.3552 18.3559C63.4283 18.4022 63.4881 18.4669 63.5288 18.5437C63.5695 18.6205 63.5897 18.7066 63.5874 18.7936C63.5861 18.9068 63.5551 19.0177 63.4976 19.115C63.44 19.2123 63.358 19.2924 63.2597 19.3473C62.9899 19.5044 62.6812 19.5804 62.37 19.5662L62.3591 19.564ZM65.3083 19.564C65.1297 19.5716 64.9514 19.5405 64.7856 19.473C64.6198 19.4054 64.4702 19.3029 64.347 19.1722C64.1121 18.9061 63.9823 18.5622 63.9823 18.206C63.9823 17.8497 64.1121 17.5058 64.347 17.2397C64.6058 16.9883 64.9511 16.8478 65.3105 16.8478C65.6699 16.8478 66.0152 16.9883 66.274 17.2397C66.5091 17.5062 66.6389 17.8504 66.6389 18.207C66.6389 18.5637 66.5091 18.9079 66.274 19.1744C66.1499 19.305 65.9995 19.4073 65.8329 19.4745C65.6664 19.5417 65.4875 19.5722 65.3083 19.564ZM65.3083 19.0672C65.4121 19.072 65.5156 19.0523 65.6105 19.0098C65.7054 18.9672 65.7892 18.9029 65.8552 18.822C65.9849 18.6453 66.0549 18.4313 66.0549 18.2114C66.0549 17.9916 65.9849 17.7775 65.8552 17.6008C65.7896 17.5191 65.7061 17.454 65.6111 17.4107C65.5161 17.3673 65.4125 17.347 65.3083 17.3513C65.2047 17.3463 65.1014 17.3663 65.0071 17.4097C64.9127 17.4531 64.83 17.5186 64.7658 17.6008C64.6361 17.7775 64.5661 17.9916 64.5661 18.2114C64.5661 18.4313 64.6361 18.6453 64.7658 18.822C64.83 18.9042 64.9127 18.9697 65.0071 19.0131C65.1014 19.0565 65.2047 19.0765 65.3083 19.0715V19.0672ZM68.7805 19.5049H67.2007V16.9092H68.7437C68.947 16.8967 69.1474 16.9633 69.3036 17.0952C69.37 17.1549 69.4227 17.2286 69.458 17.311C69.4932 17.3934 69.5101 17.4826 69.5075 17.5724C69.5119 17.71 69.4681 17.8448 69.3838 17.9532C69.3073 18.0578 69.1992 18.1346 69.0757 18.172C69.2122 18.2029 69.334 18.2802 69.4207 18.3909C69.5117 18.5058 69.5607 18.6487 69.5596 18.7958C69.5632 18.8901 69.5468 18.9842 69.5117 19.0717C69.4765 19.1593 69.4233 19.2383 69.3556 19.3035C69.1959 19.4406 68.9899 19.5103 68.7805 19.4983V19.5049ZM68.6634 19.0125C68.7486 19.0176 68.8326 18.9893 68.8977 18.9337C68.9276 18.9061 68.9509 18.8721 68.9659 18.8342C68.981 18.7963 68.9873 18.7555 68.9845 18.7148C68.9863 18.6742 68.9794 18.6337 68.9645 18.596C68.9495 18.5582 68.9268 18.5241 68.8977 18.4959C68.8664 18.4665 68.8295 18.4437 68.7892 18.4291C68.7489 18.4144 68.7061 18.4081 68.6634 18.4106H67.7606V18.9949L68.6634 19.0125ZM68.6482 17.9357C68.6873 17.9387 68.7266 17.9338 68.7638 17.9214C68.8011 17.909 68.8355 17.8893 68.8652 17.8634C68.8904 17.8398 68.9102 17.8109 68.9234 17.7788C68.9365 17.7467 68.9425 17.7121 68.9411 17.6774C68.9431 17.6413 68.9373 17.6053 68.9242 17.5717C68.9111 17.5381 68.891 17.5077 68.8652 17.4826C68.8355 17.4567 68.8011 17.437 68.7638 17.4246C68.7266 17.4122 68.6873 17.4074 68.6482 17.4104H67.7606V17.9357H68.6482ZM70.2541 16.918H70.8161V17.8547H71.7298C71.8456 17.8472 71.9617 17.8643 72.0705 17.9051C72.1793 17.9458 72.2784 18.0092 72.3613 18.0911C72.508 18.2506 72.586 18.4623 72.5783 18.6798C72.5817 18.7861 72.5642 18.892 72.527 18.9915C72.4898 19.0911 72.4334 19.1822 72.3613 19.2598C72.279 19.3415 72.1808 19.4049 72.0727 19.446C71.9647 19.4871 71.8494 19.5049 71.7341 19.4983H70.2584V16.9092L70.2541 16.918ZM71.6603 18.3471H70.8161V19.0037H71.6603C71.7073 19.0065 71.7543 18.9997 71.7986 18.984C71.843 18.9682 71.8837 18.9436 71.9186 18.9118C71.9787 18.8463 72.012 18.7603 72.012 18.671C72.012 18.5818 71.9787 18.4958 71.9186 18.4303C71.8837 18.3984 71.843 18.3739 71.7986 18.3581C71.7543 18.3423 71.7073 18.3356 71.6603 18.3384V18.3471ZM73.5353 19.5049H72.9733V16.9092H73.5353V19.4961V19.5049ZM75.4516 19.5684C75.2734 19.5746 75.0958 19.5444 74.9295 19.4797C74.7632 19.415 74.6116 19.3171 74.4837 19.1919C74.3561 19.0637 74.2562 18.9101 74.1905 18.741C74.1247 18.5718 74.0945 18.3908 74.1017 18.2092C74.0978 18.032 74.1285 17.8557 74.1922 17.6905C74.2559 17.5252 74.3512 17.3743 74.4728 17.2463C74.5925 17.1174 74.738 17.0157 74.8996 16.9478C75.0612 16.8799 75.2353 16.8473 75.4103 16.8523C75.5831 16.8461 75.7552 16.8783 75.9142 16.9468C76.0733 17.0153 76.2154 17.1183 76.3305 17.2484C76.57 17.5294 76.6949 17.8915 76.6799 18.2618V18.3843H74.6877C74.7056 18.58 74.7954 18.7619 74.9394 18.8943C75.0963 19.0342 75.3009 19.1072 75.5102 19.0978C75.6466 19.0974 75.7819 19.0722 75.9095 19.0234C76.0352 18.9756 76.1492 18.901 76.2437 18.8045L76.4997 19.1744C76.2131 19.4339 75.8362 19.5684 75.4516 19.5487V19.5684ZM76.1351 17.9991C76.1365 17.819 76.0724 17.6446 75.955 17.5089C75.8881 17.4355 75.8059 17.3779 75.7144 17.3401C75.6229 17.3022 75.5243 17.2852 75.4255 17.29C75.3294 17.2844 75.2333 17.2998 75.1437 17.3354C75.0542 17.3709 74.9734 17.4256 74.9069 17.4958C74.7811 17.6249 74.7043 17.7946 74.6898 17.9751L76.1351 17.9991ZM79.7723 19.0715C79.8775 19.0767 79.9824 19.0568 80.0785 19.0135C80.1747 18.9701 80.2594 18.9045 80.3257 18.822C80.4614 18.6443 80.5319 18.4247 80.5253 18.2005C80.5308 17.9825 80.4601 17.7694 80.3257 17.5986C80.2592 17.5177 80.1751 17.4534 80.0798 17.4109C79.9845 17.3683 79.8807 17.3487 79.7766 17.3535C79.6738 17.3483 79.5711 17.3679 79.4772 17.4105C79.3833 17.4531 79.3007 17.5176 79.2363 17.5986C79.1002 17.7687 79.0287 17.982 79.0345 18.2005C79.0276 18.4251 79.099 18.645 79.2363 18.822C79.3 18.9043 79.3823 18.97 79.4763 19.0138C79.5702 19.0576 79.6732 19.0781 79.7766 19.0737L79.7723 19.0715ZM80.7402 19.1722C80.6171 19.3052 80.4667 19.4095 80.2996 19.478C80.1324 19.5464 79.9525 19.5772 79.7723 19.5684C79.5912 19.5767 79.4106 19.5438 79.2438 19.4722C79.077 19.4006 78.9283 19.2921 78.8088 19.1547C78.5653 18.856 78.4394 18.4774 78.455 18.0911C78.455 17.4717 78.5592 17.0121 78.7719 16.7079C78.8869 16.552 79.0343 16.4232 79.2037 16.3306C79.3731 16.238 79.5605 16.1838 79.7528 16.1716C79.9392 16.1494 80.1235 16.1121 80.304 16.06C80.406 16.0228 80.4581 15.9812 80.4581 15.9309H81.0071C81.0071 16.3052 80.6404 16.535 79.9068 16.6159C79.6692 16.6301 79.4404 16.7121 79.2471 16.8523C79.1038 16.9612 79.0007 17.1153 78.9542 17.29C79.0596 17.1469 79.1982 17.032 79.3578 16.9552C79.5225 16.876 79.7027 16.8348 79.8851 16.8348C80.0499 16.8318 80.2133 16.8657 80.3634 16.9343C80.5135 17.0028 80.6467 17.1041 80.7532 17.2309C80.9812 17.4949 81.1035 17.8351 81.0961 18.1852C81.1051 18.5428 80.9768 18.8902 80.738 19.1547L80.7402 19.1722ZM83.8283 19.5049H83.2662V19.2182C83.1609 19.3335 83.0315 19.4239 82.8875 19.483C82.7434 19.542 82.5882 19.5682 82.4329 19.5596C82.2052 19.5649 81.9833 19.4872 81.8079 19.3407C81.718 19.264 81.6467 19.1675 81.5997 19.0586C81.5526 18.9496 81.5311 18.8313 81.5366 18.7126C81.5287 18.5917 81.5498 18.4707 81.5982 18.3599C81.6465 18.249 81.7207 18.1515 81.8144 18.0757C81.9922 17.932 82.2137 17.8547 82.4416 17.8569C82.5963 17.8461 82.7514 17.8704 82.8956 17.928C83.0398 17.9855 83.1694 18.0749 83.2749 18.1895V17.8087C83.278 17.7406 83.2646 17.6727 83.2359 17.6109C83.2072 17.5491 83.1639 17.4953 83.11 17.4542C82.9832 17.3647 82.8306 17.3201 82.6759 17.3272C82.5334 17.3268 82.3922 17.3555 82.261 17.4115C82.1297 17.4676 82.011 17.5498 81.9121 17.6533L81.682 17.2616C81.9745 16.9828 82.3648 16.8324 82.7671 16.8435C83.0421 16.8289 83.3144 16.9058 83.5418 17.0624C83.6454 17.1479 83.7268 17.2575 83.779 17.3818C83.8312 17.5061 83.8526 17.6414 83.8413 17.7759V19.4896L83.8283 19.5049ZM82.6521 19.1832C82.7683 19.1932 82.8853 19.1741 82.9924 19.1275C83.0996 19.0809 83.1936 19.0083 83.2662 18.9162V18.5156C83.1939 18.4232 83.0999 18.3504 82.9926 18.3038C82.8854 18.2572 82.7684 18.2382 82.6521 18.2486C82.5097 18.2426 82.3698 18.2875 82.2571 18.3756C82.2071 18.4162 82.1672 18.468 82.1405 18.5269C82.1137 18.5858 82.1009 18.6501 82.103 18.7148C82.1009 18.7789 82.1137 18.8426 82.1405 18.9007C82.1673 18.9589 82.2072 19.0099 82.2571 19.0497C82.3705 19.1361 82.5101 19.1802 82.6521 19.1744V19.1832ZM84.2862 19.5684V19.1087C84.3969 19.1087 84.4858 19.0365 84.5509 18.8899C84.6382 18.6594 84.693 18.4178 84.7137 18.172L84.87 16.9136H86.8621V19.4961H86.3001V17.4016H85.3647L85.2866 18.2311C85.2711 18.5911 85.1618 18.9406 84.9698 19.2444C84.8914 19.3481 84.7892 19.4309 84.672 19.4858C84.5548 19.5407 84.4261 19.5661 84.297 19.5596L84.2862 19.5684ZM87.3244 19.5684V19.1087C87.4351 19.1087 87.524 19.0365 87.5891 18.8899C87.6774 18.6598 87.7322 18.418 87.7519 18.172L87.9081 16.9136H89.9003V19.4961H89.3383V17.4016H88.4029L88.3248 18.2311C88.3093 18.5911 88.2 18.9406 88.008 19.2444C87.9296 19.3481 87.8274 19.4309 87.7102 19.4858C87.593 19.5407 87.4643 19.5661 87.3352 19.5596L87.3244 19.5684ZM91.7905 19.5684C91.6119 19.5758 91.4337 19.5447 91.2679 19.4771C91.1021 19.4096 90.9525 19.3071 90.8292 19.1766C90.5956 18.9098 90.4667 18.5662 90.4667 18.2103C90.4667 17.8544 90.5956 17.5108 90.8292 17.2441C91.0883 16.9925 91.4341 16.852 91.7938 16.852C92.1535 16.852 92.4992 16.9925 92.7584 17.2441C92.9921 17.5112 93.1211 17.8552 93.1211 18.2114C93.1211 18.5677 92.9921 18.9117 92.7584 19.1788C92.6337 19.3068 92.4836 19.4068 92.3179 19.4724C92.1523 19.5381 91.9748 19.5678 91.797 19.5596L91.7905 19.5684ZM91.7905 19.0715C91.8947 19.0764 91.9986 19.0563 92.0936 19.0129C92.1887 18.9695 92.2722 18.9041 92.3374 18.822C92.4684 18.6459 92.5392 18.4316 92.5392 18.2114C92.5392 17.9912 92.4684 17.777 92.3374 17.6008C92.2696 17.5231 92.1861 17.4608 92.0926 17.4182C91.999 17.3755 91.8975 17.3534 91.7949 17.3534C91.6922 17.3534 91.5907 17.3755 91.4972 17.4182C91.4036 17.4608 91.3202 17.5231 91.2523 17.6008C91.1227 17.7775 91.0527 17.9916 91.0527 18.2114C91.0527 18.4313 91.1227 18.6453 91.2523 18.822C91.3182 18.9022 91.4018 18.9658 91.4964 19.0076C91.591 19.0494 91.6939 19.0683 91.797 19.0628L91.7905 19.0715ZM94.2471 19.5093H93.6872V16.9092H94.2471V17.9269H95.4342V16.9092H95.9941V19.4961H95.4342V18.4193H94.2471V19.4961V19.5093ZM96.7211 16.9223H97.281V17.8591H98.1946C98.3108 17.8514 98.4272 17.8685 98.5364 17.9092C98.6456 17.9499 98.745 18.0134 98.8283 18.0954C98.9752 18.2549 99.0532 18.4667 99.0453 18.6842C99.0492 18.8983 98.9688 19.1053 98.8218 19.2598C98.7397 19.3417 98.6414 19.4053 98.5334 19.4464C98.4253 19.4875 98.3099 19.5052 98.1946 19.4983H96.7211V16.9092V16.9223ZM98.1252 18.3515H97.281V19.0081H98.1252C98.1721 19.0111 98.2192 19.0045 98.2636 18.9887C98.308 18.9729 98.3487 18.9482 98.3834 18.9162C98.445 18.8514 98.4793 18.7651 98.4793 18.6754C98.4793 18.5857 98.445 18.4994 98.3834 18.4347C98.3487 18.4026 98.308 18.3779 98.2636 18.3621C98.2192 18.3463 98.1721 18.3397 98.1252 18.3427V18.3515ZM100 19.5093H99.4403V16.9092H100V19.5093Z" fill="white"/>
</g>
<defs>
<clipPath id="clip0_3230_13797">
<rect width="100" height="23" fill="white"/>
</clipPath>
</defs>
</svg>
