<svg width="100" height="23" fill="none" xmlns="http://www.w3.org/2000/svg"><g clip-path="url(#clip0_3230_13797)" fill-rule="evenodd" clip-rule="evenodd"><path d="M4.92 7.352c-.38-.103 0 0-.332-.143a6.677 6.677 0 00-2.791-.525c-.06.32-.06.243.085.48.514.822.844 1.094 1.495 1.647.125.13.261.248.408.353.363.247.79.38 1.228.383-.15.219-.113.098-.189.38h-.189c-.277-.776-3.112-1.039-3.878-.656.159.59.98 1.138 1.378 1.453.254.235.543.426.858.567.342.16.703.275 1.074.346v.287a4.979 4.979 0 00-1.01-.22c-1.32-.12-2.217.41-3.057.607.033.383-.059.164.167.405.484.499 2.316 1.123 3.333 1.123-.316.606-2.085 1.232-2.365 2.289.497.24 1.161.203 1.736.125l1.432-.084c-.963.615-3.778 3.218-.65 2.408l1.735-.536a5.988 5.988 0 00-.677 1.313c-.078.219-.518 1.431-.238 1.578.236.127 1.126-.438 1.317-.587l1.207-.875c-.159.685-.61 1.832-.474 2.48.94 0 2.513-1.672 2.743-2.67.283.205.087 0 .137.218.07.322 0 1.907.525 2.92.54-.287.684-.591 1.098-1.278.374-.617.51-1.018.51-1.97l.06.133c.281.7 1.175 1.9 1.585 2.218 1.32 1.024.751-.847.628-2.351.434.158 1.469 1.431 2.647 1.431-.024-1.116-.65-2.105-1.04-2.86.19.044 4.002 1.352 3.039 0l-.638-.705c-.475-.519-1.187-1.33-1.93-1.392v-.19c.8.188 2.412.904 3.69.284-.202-.875-1.916-1.702-2.366-2.096 1.029-.088 2.461-1.095 2.648-1.145v-.28c-.406-.097-.79-.324-1.27-.438-.484-.113-.977-.19-1.473-.232.39-.341 1.884-1.155 2.081-1.908-.356-.083-.412-.171-.848-.193a5.703 5.703 0 00-1.099.042c-.768.11-1.171.162-1.736.437.174-.483.434-.098 1.539-1.216.378-.386 1.085-.998 1.204-1.55-.8-.387-2.593.151-3.216.571.154-.656 1.042-1.921 1.042-2.957-1.133 0-1.773.839-2.65 1.432 0-1.302.248-.825.096-2.67-.723.015-1.031.656-1.4 1.07a3.233 3.233 0 00-.712 1.094l-.254.41c0-.948-.286-1.366-.566-2.005-.217-.475-.577-1.278-1.137-1.427a16.357 16.357 0 00-.382 3.064c0 .54.089.73.097 1.142-.785-.07.471.086-.963-2.079L7.127 3.515c-.232-.232-.183-.256-.6-.265 0 .47-.14.795-.09 1.427.034.41.175.92.184 1.34-.252-.171-2.21-1.994-2.647-1.532-.285.31.88 2.626.946 2.867z" fill="#fff"/><path d="M8.487 7.33c-.217-.22 0 0-.175-.22a5.258 5.258 0 00-1.736-1.398c-.159.19-.133.143-.118.361a4.74 4.74 0 00.434 1.692 1.763 1.763 0 00.86 1.116c-.187.101-.115.027-.27.193l-.13-.07c.092-.64-1.766-1.874-2.43-1.904-.11.475.252 1.155.412 1.532.09.256.22.495.384.709.178.238.384.453.615.639l-.105.197a3.914 3.914 0 00-.616-.527c-.868-.576-1.678-.545-2.329-.723-.119.278-.102.097-.032.342.15.523 1.185 1.635 1.888 2.013-.434.298-1.888.075-2.468.698.254.353.725.574 1.148.731l1.018.475c-.887.066-3.782.815-1.324 1.416l1.394.28c-.342.18-.66.4-.949.657-.136.125-.88.795-.742 1 .14.206.931.125 1.122.086l1.155-.16c-.36.413-1.085 1.035-1.233 1.532.651.35 2.344-.219 2.869-.82.12.244.06.028 0 .218-.072.247-.701 1.313-.705 2.208.477 0 .685-.153 1.224-.473.482-.26.862-.677 1.08-1.183v.111a5.996 5.996 0 00.285 2.119c.536 1.2.826-.305 1.29-1.388.24.271.491 1.532 1.303 1.97.393-.777.325-1.692.33-2.36.113.101 2.265 2.423 2.098 1.13l-.193-.707c-.136-.534-.332-1.36-.82-1.679l.07-.131c.481.438 1.332 1.532 2.439 1.57.18-.675-.697-1.887-.868-2.327.74.324 2.098.162 2.246.197l.104-.2c-.245-.218-.434-.516-.716-.772a8.102 8.102 0 00-.931-.707c.397-.11 1.725-.11 2.137-.547a2.612 2.612 0 00-.516-.449 4.688 4.688 0 00-.773-.38c-.57-.209-.868-.325-1.36-.344.295-.27.34.096 1.503-.267.404-.127 1.11-.29 1.4-.622-.412-.564-1.845-.86-2.428-.8.351-.404 1.421-.94 1.799-1.653-.781-.42-1.52-.081-2.35 0 .477-.9.473-.477 1.043-1.808-.505-.256-.948.064-1.356.219a2.5 2.5 0 00-.892.49l-.334.186c.347-.656.304-1.048.343-1.593.03-.405.07-1.094-.26-1.407-.522.61-.985 1.27-1.38 1.97-.198.371-.218.536-.352.824-.517-.341.293.232.095-1.794l-.278-1.291c-.065-.254-.028-.254-.31-.408-.18.322-.386.495-.584.95-.126.298-.217.7-.362.994-.11-.219-.794-2.189-1.268-2.038-.31.105-.351 2.136-.395 2.325z" fill="#25A1D3"/><path d="M9.87 8.27c.91.004 1.8.279 2.556.792a4.638 4.638 0 011.69 2.089 4.684 4.684 0 01-1.01 5.059 4.595 4.595 0 01-2.36 1.266 4.57 4.57 0 01-2.66-.269 4.616 4.616 0 01-2.065-1.713 4.675 4.675 0 01.583-5.87A4.619 4.619 0 019.87 8.27zm21.163 3.953v2.016h-6.88V3.384h6.624v2.015H26.59V7.66h3.973v1.97H26.59v2.593h4.444zm5.91 2.016h-2.438l-2.82-7.892h2.603l1.075 3.67c.18.63.324 1.268.434 1.913h.071c.109-.646.252-1.24.434-1.913l.994-3.67h2.541l-2.899 7.879.004.013zM45.07 8.45c-.895 0-1.504.49-1.648 1.239-.042.178-.066.36-.071.543v4.007h-2.44V8.94c0-1.136 0-1.912-.034-2.584h2.077l.071 1.448h.072a2.32 2.32 0 01.799-1.152 2.288 2.288 0 011.313-.476 3.21 3.21 0 01.5.024v2.335a2.39 2.39 0 00-.65-.076l.01-.009zm5.442 5.968c-2.291 0-4.045-1.532-4.045-4.057 0-2.526 1.647-4.185 4.189-4.185 2.365 0 3.975 1.653 3.975 4.032 0 2.893-2.042 4.21-4.123 4.21h.004zm.072-6.484c-1.18 0-1.61 1.188-1.61 2.35 0 1.37.573 2.377 1.61 2.377.93 0 1.54-.956 1.54-2.377 0-1.162-.466-2.35-1.54-2.35zm10.134 6.484c-.93 0-1.79-.334-2.363-1.29h-.034l-.109 1.111h-2.04a39.82 39.82 0 00.072-2.353V2.79h2.393v4.496h.037c.465-.672 1.29-1.11 2.364-1.11 1.896 0 3.255 1.576 3.222 3.979 0 2.845-1.756 4.263-3.546 4.263h.005zm-.572-6.346a1.464 1.464 0 00-.933.348 1.487 1.487 0 00-.5.866c-.04.143-.065.29-.071.438v1.164c.005.149.029.296.071.438.069.331.249.628.51.84.261.213.587.327.923.324 1.04 0 1.647-.8 1.647-2.223 0-1.215-.536-2.189-1.647-2.189v-.006zm10.058 6.167l-.143-.801h-.035a2.846 2.846 0 01-2.257.98c-1.575 0-2.506-1.162-2.506-2.429 0-2.04 1.825-3.022 4.583-2.996v-.13c0-.413-.252-1.008-1.432-1.008a4.459 4.459 0 00-2.149.595L65.8 6.872a6.476 6.476 0 013.038-.696c2.604 0 3.438 1.55 3.438 3.41v2.74c-.01.64.027 1.279.108 1.913h-2.179zm-.286-3.72c-1.29-.025-2.257.284-2.257 1.24a.88.88 0 00.567.88.86.86 0 00.366.05 1.398 1.398 0 001.285-.906c.03-.135.041-.274.034-.413v-.854l.005.002zm4.262 3.72V2.79h2.426v11.45H74.18zm4.44 0V2.79h2.435v11.45H78.62zm8.03.18c-2.255 0-4.01-1.533-4.01-4.058 0-2.526 1.646-4.185 4.153-4.185 2.4 0 3.975 1.653 3.975 4.032 0 2.893-2.005 4.21-4.123 4.21h.005zm.071-6.485c-1.146 0-1.575 1.188-1.575 2.35 0 1.37.536 2.377 1.575 2.377.968 0 1.54-.956 1.54-2.377 0-1.162-.433-2.35-1.54-2.35zm10.634 6.305V9.862c0-1.007-.324-1.705-1.218-1.705a1.247 1.247 0 00-.759.246c-.22.163-.38.394-.458.658a1.58 1.58 0 00-.109.62v4.558H92.37V8.864c0-.983-.035-1.81-.072-2.508h2.114l.106 1.094h.072a2.881 2.881 0 011.043-.936 2.88 2.88 0 011.357-.33c1.61 0 2.793 1.06 2.793 3.385v4.67h-2.428zm-73.123 1.683h2.441v.552h-1.816v.783h.94a1.126 1.126 0 01.852.324 1.17 1.17 0 010 1.593 1.138 1.138 0 01-.852.322h-1.565v-3.574zm1.48 1.887h-.855v1.136h.855a.633.633 0 00.434-.156.578.578 0 000-.825.633.633 0 00-.434-.155zm2.943 1.75a1.321 1.321 0 01-.97-.376 1.316 1.316 0 01-.38-.982 1.362 1.362 0 01.369-.963 1.244 1.244 0 01.937-.395 1.17 1.17 0 01.923.397c.24.28.364.643.349 1.013v.131h-1.992a.79.79 0 00.252.51c.156.14.361.213.57.204.137 0 .272-.026.4-.075a.921.921 0 00.332-.218l.258.37a1.457 1.457 0 01-1.057.385h.009zm.683-1.569a.741.741 0 00-.195-.477.674.674 0 00-.532-.219.657.657 0 00-.516.206.776.776 0 00-.217.48l1.46.01zm2.031 1.57a1.623 1.623 0 01-1.186-.416l.262-.361c.257.22.588.333.924.317a.933.933 0 00.46-.094.281.281 0 00.17-.254c0-.219-.217-.337-.68-.337h-.548v-.45h.549c.158.007.316-.022.462-.086a.27.27 0 00.17-.252.268.268 0 00-.177-.232.995.995 0 00-.434-.09 1.108 1.108 0 00-.826.311l-.278-.343a1.44 1.44 0 011.085-.423c.31-.02.622.044.9.184a.574.574 0 01.328.517.516.516 0 01-.206.415.934.934 0 01-.478.206c.182.015.357.079.506.184a.506.506 0 01.232.438.648.648 0 01-.33.553 1.613 1.613 0 01-.887.22l-.018-.007zm2.948 0a1.247 1.247 0 01-.962-.392 1.467 1.467 0 010-1.933 1.385 1.385 0 011.93 0 1.47 1.47 0 010 1.935 1.263 1.263 0 01-.968.39zm0-.497a.658.658 0 00.546-.241 1.023 1.023 0 000-1.221.722.722 0 00-.84-.183.723.723 0 00-.245.183 1.032 1.032 0 000 1.221.662.662 0 00.543.25l-.004-.01zm4.203.438h-.56v-2.1h-1.187v2.095h-.56V16.91h2.307v2.592zm2.865 0h-.562v-.283a1.056 1.056 0 01-.834.342.94.94 0 01-.625-.22.768.768 0 01-.271-.627.76.76 0 01.27-.629.982.982 0 01.626-.218 1.033 1.033 0 01.834.332v-.39a.422.422 0 00-.165-.354.697.697 0 00-.434-.127 1.05 1.05 0 00-.764.326l-.23-.391c.292-.28.683-.43 1.085-.419a1.25 1.25 0 01.775.22.831.831 0 01.3.713v1.714l-.005.01zm-1.176-.322a.702.702 0 00.614-.267v-.396a.704.704 0 00-.614-.267.6.6 0 00-.396.127.417.417 0 00-.154.339.412.412 0 00.154.335.61.61 0 00.395.124v.005zm3.077.385a1.278 1.278 0 01-.968-.387 1.451 1.451 0 010-1.95 1.285 1.285 0 01.968-.375 1.147 1.147 0 01.985.453l-.369.342a.684.684 0 00-.592-.304.723.723 0 00-.558.238.898.898 0 00-.217.62.913.913 0 00.217.621.726.726 0 00.566.24.698.698 0 00.593-.306l.369.344a1.162 1.162 0 01-.988.46l-.006.004zm2.04-.064h-.56v-2.59h.56v1.017h1.185v-1.018h.562v2.587h-.562V18.42h-1.185v1.081zm2.474-2.586h.56v.936h.913a.828.828 0 01.64.232c.147.16.225.371.217.589a.815.815 0 01-.23.589.826.826 0 01-.627.238H47.8V16.91v.005zm1.404 1.429h-.845v.656h.845a.346.346 0 00.258-.092.356.356 0 000-.481.349.349 0 00-.258-.092v.009zm1.875 1.157h-.562v-2.59h.562v2.59zm1.916.064a1.316 1.316 0 01-.968-.377 1.315 1.315 0 01-.377-.986 1.357 1.357 0 01.37-.963 1.237 1.237 0 01.932-.386 1.168 1.168 0 01.92.396c.24.281.364.643.35 1.014v.122h-1.993a.79.79 0 00.252.51c.157.14.361.213.57.204.137 0 .272-.026.4-.075a.93.93 0 00.334-.218l.252.38a1.45 1.45 0 01-1.049.375l.007.004zm.684-1.57a.75.75 0 00-.194-.476.68.68 0 00-.531-.22.658.658 0 00-.519.207.8.8 0 00-.217.479l1.46.01zm4.429-1.08v.492h-1.393v2.095h-.563v-2.592l1.956.005zm2.604 2.586h-.56v-.282a1.056 1.056 0 01-.833.342.935.935 0 01-.625-.22.768.768 0 01-.274-.627.765.765 0 01.27-.629.989.989 0 01.629-.218 1.033 1.033 0 01.833.332v-.39a.424.424 0 00-.167-.354.695.695 0 00-.434-.127 1.045 1.045 0 00-.764.326l-.23-.391c.292-.28.683-.43 1.085-.419.275-.014.547.063.775.22a.831.831 0 01.3.713v1.714l-.005.01zm-1.174-.321a.706.706 0 00.614-.267v-.396a.707.707 0 00-.614-.267.606.606 0 00-.397.127.423.423 0 00-.154.339.42.42 0 00.154.335c.114.086.254.13.397.124v.005zm2.821.385a1.62 1.62 0 01-1.185-.416l.26-.361c.258.22.588.333.925.317a.949.949 0 00.462-.094.28.28 0 00.17-.254c0-.218-.228-.337-.68-.337h-.55v-.455h.55a1.05 1.05 0 00.463-.085.254.254 0 00.17-.242.258.258 0 00-.17-.242.978.978 0 00-.434-.09 1.12 1.12 0 00-.83.311l-.277-.343a1.445 1.445 0 011.085-.423c.31-.02.62.044.898.184a.576.576 0 01.33.517.523.523 0 01-.217.415.942.942 0 01-.477.206c.18.015.354.079.503.184a.498.498 0 01.232.438.647.647 0 01-.327.553 1.62 1.62 0 01-.89.22l-.01-.003zm2.95 0a1.246 1.246 0 01-.962-.392 1.46 1.46 0 010-1.932 1.383 1.383 0 011.927 0 1.462 1.462 0 010 1.934 1.257 1.257 0 01-.966.39zm0-.497a.664.664 0 00.546-.245 1.032 1.032 0 000-1.221.669.669 0 00-.547-.25.646.646 0 00-.542.25 1.032 1.032 0 000 1.221.652.652 0 00.542.25v-.005zm3.472.438H67.2v-2.596h1.543a.792.792 0 01.56.186.617.617 0 01.203.477.59.59 0 01-.123.381.596.596 0 01-.308.219.61.61 0 01.345.219c.09.115.14.258.139.405a.673.673 0 01-.204.508.811.811 0 01-.575.194v.007zm-.118-.492a.33.33 0 00.235-.08.271.271 0 00.087-.218.289.289 0 00-.196-.286.314.314 0 00-.126-.018h-.902v.584l.902.017zm-.015-1.077a.294.294 0 00.217-.073.242.242 0 00.076-.186.252.252 0 00-.076-.194.297.297 0 00-.217-.073h-.887v.526h.887zm1.606-1.018h.562v.937h.914a.82.82 0 01.631.236c.147.16.225.371.217.589a.816.816 0 01-.217.58.826.826 0 01-.627.238h-1.476V16.91l-.004.009zm1.406 1.43h-.844v.656h.844a.351.351 0 00.259-.092.356.356 0 000-.482.353.353 0 00-.259-.092v.01zm1.875 1.157h-.562v-2.596h.562v2.596zm1.917.063a1.314 1.314 0 01-.968-.376 1.314 1.314 0 01-.382-.983 1.359 1.359 0 01.37-.963 1.236 1.236 0 01.938-.394 1.168 1.168 0 01.92.396c.24.281.365.643.35 1.014v.122h-1.992a.79.79 0 00.251.51c.157.14.362.213.571.204.137 0 .272-.026.4-.075a.93.93 0 00.334-.218l.256.37a1.45 1.45 0 01-1.048.374v.02zM76.135 18a.74.74 0 00-.18-.49.674.674 0 00-.53-.219.659.659 0 00-.518.206.776.776 0 00-.217.48l1.445.023zm3.637 1.073a.665.665 0 00.554-.25.977.977 0 00.2-.621.936.936 0 00-.2-.602.674.674 0 00-.55-.245.646.646 0 00-.54.245.924.924 0 00-.202.602.966.966 0 00.202.621.651.651 0 00.54.252l-.004-.003zm.968.1a1.243 1.243 0 01-.968.396 1.2 1.2 0 01-.963-.413 1.583 1.583 0 01-.354-1.064c0-.62.104-1.079.317-1.383a1.329 1.329 0 01.98-.536c.187-.023.372-.06.552-.112.102-.037.154-.079.154-.13h.55c0 .375-.368.605-1.101.686a1.25 1.25 0 00-.66.236.812.812 0 00-.293.438c.106-.143.244-.258.404-.335a1.217 1.217 0 011.005-.02c.15.068.284.17.39.296.228.264.35.604.343.954.01.358-.12.705-.358.97l.002.017zm3.088.333h-.562v-.287a1.056 1.056 0 01-.833.342.94.94 0 01-.625-.22.774.774 0 01-.271-.627.758.758 0 01.277-.637.982.982 0 01.628-.22 1.03 1.03 0 01.833.333v-.38a.424.424 0 00-.165-.355.697.697 0 00-.434-.127 1.05 1.05 0 00-.764.326l-.23-.391a1.51 1.51 0 011.085-.419c.275-.014.547.063.775.22a.831.831 0 01.3.713v1.714l-.014.015zm-1.176-.322a.702.702 0 00.614-.267v-.4a.703.703 0 00-.614-.267.6.6 0 00-.395.127.416.416 0 00-.154.339.412.412 0 00.154.335.61.61 0 00.395.124v.01zm1.634.385v-.46c.11 0 .2-.072.265-.218.087-.23.142-.472.163-.718l.156-1.258h1.992v2.582H86.3v-2.094h-.935l-.078.83c-.016.36-.125.709-.317 1.012a.797.797 0 01-.673.316l-.01.008zm3.038 0v-.46c.111 0 .2-.072.265-.218a2.6 2.6 0 00.163-.718l.156-1.258H89.9v2.582h-.562v-2.094h-.935l-.078.83c-.016.36-.125.709-.317 1.012a.797.797 0 01-.673.316l-.01.008zm4.466 0a1.247 1.247 0 01-.96-.391 1.467 1.467 0 010-1.933 1.385 1.385 0 011.928 0 1.47 1.47 0 010 1.935 1.265 1.265 0 01-.961.38l-.007.01zm0-.497a.655.655 0 00.547-.249 1.023 1.023 0 000-1.221.723.723 0 00-.84-.183.723.723 0 00-.245.183 1.033 1.033 0 000 1.221.663.663 0 00.545.24l-.007.01zm2.457.438h-.56v-2.6h.56v1.018h1.187V16.91h.56v2.587h-.56V18.42h-1.187v1.09zm2.474-2.587h.56v.937h.914a.823.823 0 01.633.236c.147.16.225.372.217.59a.814.814 0 01-.223.575.823.823 0 01-.627.238H96.72V16.91v.013zm1.404 1.43h-.844v.656h.844a.347.347 0 00.258-.092.35.35 0 000-.481.348.348 0 00-.258-.092v.009zM100 19.509h-.56v-2.6h.56v2.6z" fill="#fff"/></g><defs><clipPath id="clip0_3230_13797"><path fill="#fff" d="M0 0h100v23H0z"/></clipPath></defs></svg>